<?xml version="1.0" encoding="utf-8"?>
<!-- Generator: Adobe Illustrator 27.3.1, SVG Export Plug-In . SVG Version: 6.00 Build 0)  -->
<svg version="1.1" id="Layer_1" xmlns="http://www.w3.org/2000/svg" xmlns:xlink="http://www.w3.org/1999/xlink" x="0px" y="0px"
	 viewBox="0 0 181.4 181.4" style="enable-background:new 0 0 181.4 181.4;" xml:space="preserve">
<style type="text/css">
	.st0{fill:#FFFFFF;stroke:#2B3990;stroke-width:6;stroke-miterlimit:10;}
	.st1{fill:url(#SVGID_1_);}
</style>
<path class="st0" d="M174,136.8l-64.1-111c-1.8-3.8-4.7-7.2-8.6-9.4c-2.9-1.7-6-2.5-9.1-2.7c-0.1,0-0.2,0-0.3,0c-0.4,0-0.8,0-1.3,0
	c-0.4,0-0.8,0-1.3,0c-0.1,0-0.2,0-0.3,0c-3.1,0.2-6.2,1.1-9.1,2.7c-3.9,2.3-6.8,5.6-8.6,9.4l-64.1,111c-5.8,10.1-2.3,23,7.7,28.8
	c10.1,5.8,23,2.3,28.8-7.7l25.8-44.6c6.2,3.6,13.3,5.7,20.9,5.7s14.8-2.1,20.9-5.7l25.8,44.6c5.8,10.1,18.8,13.5,28.8,7.7
	C176.3,159.8,179.8,146.8,174,136.8z"/>
<linearGradient id="SVGID_1_" gradientUnits="userSpaceOnUse" x1="64.645" y1="81.7087" x2="116.7724" y2="81.7087" gradientTransform="matrix(6.123234e-17 1 -1 6.123234e-17 172.4173 -9)">
	<stop  offset="0" style="stop-color:#324A9F"/>
	<stop  offset="1" style="stop-color:#3B56A6;stop-opacity:0"/>
</linearGradient>
<circle class="st1" cx="90.7" cy="81.7" r="26.1"/>
</svg>
